<svg xmlns="http://www.w3.org/2000/svg" viewBox="0 0 48 48" width="512" height="512">
  <path d="M9.9375001 9.9375H38.0625v28.125H9.9375001z" fill="#ccc"/>
  <path d="M7.304 2.0866668h33.390667c2.881334 0 5.217333 2.3359998 5.217333 5.2173333V40.694666c0 2.881334-2.335999 5.217334-5.217333 5.217334H7.304c-2.8813334 0-5.2173332-2.336-5.2173332-5.217334V7.3040001c0-2.8813335 2.3359998-5.2173333 5.2173332-5.2173333zM7.304 0C3.2866667 0 0 3.2866668 0 7.3040001V40.694666C0 44.713333 3.2866667 48 7.304 48h33.390667C44.713333 48 48 44.713333 48 40.696V7.3040001C48 3.2866668 44.713333 0 40.696001 0z" fill="#673ab7"/>
  <circle cx="34.693874" cy="34.693874" r="8.203125" fill="#ff9800"/>
  <circle cx="34.693874" cy="13.306126" r="8.203125" fill="#3f51b5"/>
  <circle cx="13.306126" cy="34.693874" r="8.203125" fill="#4caf50"/>
  <circle cx="13.306126" cy="13.306126" r="8.203125" fill="#f44336"/>
</svg>
