<svg xmlns="http://www.w3.org/2000/svg" xmlns:xlink="http://www.w3.org/1999/xlink" viewBox="0 0 48 48" width="512" height="512">
  <defs>
    <linearGradient id="a">
      <stop offset="0" stop-color="green"/>
      <stop offset="1" stop-color="#a8ffc5" stop-opacity=".58389264"/>
    </linearGradient>
    <radialGradient xlink:href="#a" id="b" cx="11" cy="11" fx="11" fy="11" r="11" gradientUnits="userSpaceOnUse" gradientTransform="scale(1.80794) rotate(-45 14.88324136 9.39150705)"/>
  </defs>
  <path d="M9.9375001 9.9375H38.0625v28.125H9.9375001z" fill="#ccc"/>
  <path d="M7.304 2.0866668h33.390667c2.881334 0 5.217333 2.3359998 5.217333 5.2173333V40.694666c0 2.881334-2.335999 5.217334-5.217333 5.217334H7.304c-2.8813334 0-5.2173332-2.336-5.2173332-5.217334V7.3040001c0-2.8813335 2.3359998-5.2173333 5.2173332-5.2173333zM7.304 0C3.2866667 0 0 3.2866668 0 7.3040001V40.694666C0 44.713333 3.2866667 48 7.304 48h33.390667C44.713333 48 48 44.713333 48 40.696V7.3040001C48 3.2866668 44.713333 0 40.696001 0z" fill="#673ab7"/>
  <circle cx="34.693874" cy="34.693874" r="8.203125" fill="#ff9800"/>
  <circle cx="34.693874" cy="13.306126" r="8.203125" fill="#3f51b5"/>
  <circle cx="13.306126" cy="34.693874" r="8.203125" fill="#4caf50"/>
  <circle cx="13.306126" cy="13.306126" r="8.203125" fill="#f44336"/>
  <path d="M30.392045 35.505683L27.835228 38.0625H38.0625V27.835228l-2.556816 2.556818L29.113636 24l6.392048-6.392046 2.556816 2.556819V9.9375H27.835228l2.556817 2.556818-6.392046 6.392047-6.392044-6.392047L20.164772 9.9375H9.9375v10.227273l2.55682-2.556819L18.886364 24l-6.392044 6.392046-2.55682-2.556818V38.0625h10.227272l-2.556817-2.556817 6.392044-6.392045z" fill="url(#b)"/>
</svg>
